<svg version="1.2" xmlns="http://www.w3.org/2000/svg" viewBox="0 0 100 59" width="100" height="59"><defs><clipPath clipPathUnits="userSpaceOnUse" id="cp1"><path d="m-325-1309h1224v1530h-1224z"/></clipPath><clipPath clipPathUnits="userSpaceOnUse" id="cp2"><path d="m-304.14-1309h1182.28v1530h-1182.28z"/></clipPath></defs><style>.a{stroke:#000;stroke-width:3.9}.b{fill:#fff}.c{fill:#c7c8ca;stroke:#000;stroke-linecap:round;stroke-linejoin:round;stroke-width:1.9}.d{fill:none;stroke:#000;stroke-linecap:round;stroke-linejoin:round;stroke-width:1}</style><g clip-path="url(#cp1)"><g clip-path="url(#cp2)"><rect class="a" x="2.5" y="2.9" width="94.6" height="54.1" rx="6.4"></rect><path fill-rule="evenodd" class="b" d="m15.3 39.3c-0.3 3.4-1.9 5-4.8 5-3.1 0-4.7-1.6-4.9-5q-0.3-3.1-0.3-6.2 0-1.4 0.1-2.7c0 0 0-7 0.2-8.9 0.2-3.4 1.8-5 4.9-5 2.9 0 4.5 1.6 4.8 5 0 0.7 0.1 3.1 0.1 4h-3.1c0-1-0.1-3.4-0.1-4.1-0.2-1.5-0.7-2.2-1.7-2.2-0.9 0-1.4 0.7-1.6 2.2-0.2 2-0.2 9-0.2 9q0 1.7 0 3.5c0 1.8 0 3.7 0.2 5.5 0.2 1.5 0.7 2.2 1.6 2.2 1 0 1.5-0.7 1.7-2.2 0-0.6 0.1-3.2 0.1-4.3h3.1c0 0.7-0.1 3.6-0.1 4.2zm8.8 4.7v-10.8h-3.4v10.8h-3.4v-16.4c0 0 0-3.8 0.2-5.5 0.3-3.1 2.6-5.3 5.6-5.3h15.3v2.8h-3.8v20c0 1.3 0.8 1.9 1.7 1.9h0.9v2.7h-0.9c-3.1 0-5.1-1.3-5.1-4.4v-20.2h-3.7v24.4zm0.1-24.4h-1.1c-0.9 0-2.1 0.7-2.2 2-0.2 1.3-0.2 3.6-0.2 4.8v4h3.5zm21.7 24.4v-10.8h-3.5v10.8h-3.3v-16.4c0 0 0-3.8 0.2-5.5 0.2-3.1 2.6-5.3 5.5-5.3h4.5v27.2zm0.1-24.4h-1.1c-0.9 0-2.1 0.7-2.3 2-0.1 1.3-0.1 3.6-0.1 4.8v4h3.5zm31.1 24.7c-2.9 0-5-1.6-5-5.1v-4.1h3.1v4.2c0 1.6 0.9 2.3 1.9 2.3 0.9 0 1.8-0.7 1.8-2.3v-3.4c0-4.2-6.7-6.4-6.7-11.5v-2.9c0-3.5 1.9-5 5-5 2.8 0 4.7 1.5 4.7 5v3.3h-3v-3.4c0-1.5-0.7-2.2-1.7-2.2-0.9 0-1.6 0.7-1.6 2.2v3c0 3.2 6.6 6.3 6.6 11.4v3.4c0 3.5-2 5.1-5.1 5.1zm12.9-24.7v19.9c0 1.4 0.9 2 1.8 2h0.8v2.7h-0.8c-3.1 0-5.1-1.3-5.1-4.4v-20.2h-3.9v-2.8h11.1v2.8zm-44 30.4c0 0.8-0.2 1.4-0.6 1.8-0.4 0.4-1 0.5-1.6 0.5-0.5 0-1-0.1-1.4-0.3l0.3-0.8c0.2 0.2 0.6 0.3 1.1 0.3 0.7 0 1.2-0.3 1.2-1.2v-0.4c-0.3 0.4-0.7 0.6-1.2 0.6-1 0-1.7-0.8-1.7-1.9 0-1.4 0.8-2.2 1.8-2.2 0.6 0 1 0.3 1.2 0.7v-0.6h0.9c0 0.3 0 0.6 0 1.2zm-1-1.8q0-0.2-0.1-0.3c-0.1-0.4-0.4-0.7-0.8-0.7-0.6 0-1 0.5-1 1.3 0 0.7 0.4 1.3 1 1.3 0.4 0 0.7-0.3 0.8-0.6q0.1-0.2 0.1-0.4z"/><path fill-rule="evenodd" class="b" d="m49.9 49.6c0 0.4 0 0.7 0 1h-0.9v-0.5h-0.1c-0.2 0.3-0.6 0.6-1.2 0.6-0.8 0-1.2-0.6-1.2-1.2 0-1.1 0.9-1.6 2.4-1.6 0-0.3-0.1-0.7-0.9-0.7-0.4 0-0.8 0.1-1 0.3l-0.2-0.7c0.3-0.2 0.8-0.4 1.4-0.4 1.3 0 1.7 0.9 1.7 1.7zm-1-1c-0.7 0-1.4 0.2-1.4 0.8 0 0.4 0.2 0.6 0.6 0.6 0.4 0 0.7-0.3 0.8-0.6q0-0.1 0-0.2zm1.7-0.9q0-0.6 0-1.2h0.9v0.6c0.2-0.3 0.6-0.7 1.3-0.7 0.5 0 0.9 0.3 1.1 0.8q0.2-0.3 0.5-0.5 0.3-0.3 0.8-0.3c0.7 0 1.4 0.5 1.4 1.8v2.4h-1v-2.3c0-0.6-0.2-1-0.7-1-0.4 0-0.6 0.2-0.7 0.5q-0.1 0.2-0.1 0.4v2.4h-1v-2.4c0-0.5-0.2-0.9-0.7-0.9-0.4 0-0.6 0.3-0.7 0.6q-0.1 0.1-0.1 0.3v2.4h-1zm7.5 1.1c0 0.7 0.6 1 1.2 1 0.5 0 0.8 0 1.1-0.2l0.2 0.8c-0.4 0.1-0.9 0.2-1.4 0.2-1.4 0-2.1-0.8-2.1-2 0-1.2 0.7-2.2 2-2.2 1.3 0 1.7 1.1 1.7 2q0 0.2 0 0.4zm1.7-0.7c0-0.4-0.1-1-0.8-1-0.6 0-0.9 0.6-0.9 1zm8.3-3.5h1.1v5.9h-1.1zm5 4.9c0 0.4 0 0.8 0 1h-0.9l-0.1-0.4c-0.2 0.3-0.6 0.5-1.2 0.5-0.8 0-1.2-0.6-1.2-1.2 0-1 0.9-1.5 2.4-1.5v-0.1c0-0.3-0.1-0.7-0.9-0.7-0.4 0-0.8 0.1-1 0.3l-0.3-0.7c0.3-0.1 0.9-0.3 1.5-0.3 1.3 0 1.7 0.8 1.7 1.7zm-1-1c-0.7 0-1.4 0.1-1.4 0.7 0 0.4 0.2 0.6 0.6 0.6 0.4 0 0.7-0.3 0.8-0.5q0-0.2 0-0.3zm1.7-3.9h1v2.4h0.1c0.2-0.4 0.7-0.6 1.3-0.6 0.9 0 1.6 0.8 1.6 2 0 1.5-0.9 2.2-1.8 2.2-0.5 0-1-0.2-1.3-0.7v0.6h-0.9c0-0.3 0-0.7 0-1.1zm1 4.2q0 0.1 0.1 0.2c0.1 0.4 0.4 0.7 0.9 0.7 0.6 0 1-0.5 1-1.3 0-0.7-0.3-1.3-1-1.3-0.4 0-0.8 0.3-0.9 0.8q-0.1 0.1-0.1 0.2zm3.5 0.8c0.2 0.1 0.7 0.3 1 0.3 0.5 0 0.7-0.2 0.7-0.5 0-0.3-0.2-0.4-0.7-0.6-0.8-0.3-1.1-0.7-1.1-1.2 0-0.7 0.6-1.2 1.5-1.2 0.5 0 0.9 0.1 1.1 0.2l-0.2 0.7c-0.2-0.1-0.5-0.2-0.9-0.2-0.3 0-0.5 0.2-0.5 0.4 0 0.3 0.2 0.4 0.7 0.6 0.7 0.3 1.1 0.6 1.1 1.2 0 0.8-0.6 1.3-1.7 1.3-0.5 0-0.9-0.1-1.2-0.3zm-8.6-21.1c0 0 0 4.3 0 6-0.4 2.5-1.4 4.2-3.4 4.7v8.6l-3.4 3.4v-10.8q0 0 0 0v-1.2c-2-0.5-3-2.2-3.2-4.7-0.1-0.9 0-4.2 0-4.2 0 0-0.1-0.5 0.6-1 0.7-0.5 2.6-4.1 2.6-4.1v3.3c0 0 0 0.8 0 1.7 0 1.4 0 3.2 0.2 4.2 0.1 1.3 0.6 2 1.5 2 0.9 0 1.4-0.7 1.6-2 0.2-1.8 0.2-6.1 0.2-6.1v-9.3l1.2-2.2h2.1v6c0 0 0 5.7 0 5.7zm-14.4 12.7h5.2v2.7h-8.5v-22.1l3.3 5.6zm27 3.9h-0.5v-0.2h1.2v0.2h-0.5v1.3h-0.2zm2.1 0.7c0-0.2 0-0.5 0-0.6h-0.1q0 0.2-0.1 0.5l-0.3 0.8h-0.1l-0.3-0.8q-0.1-0.3-0.2-0.5c0 0.1 0 0.4 0 0.6v0.7h-0.2l0.1-1.5h0.2l0.3 0.7q0.1 0.3 0.1 0.5 0.1-0.2 0.2-0.5l0.3-0.7h0.2l0.1 1.5h-0.2z"/><path class="c" d="m72.8 13.4c0 0-0.6 0.5-1.1 0.5-0.4-0.1-0.6-0.9-1.2-0.7l-0.3 0.3-3.9 2.4-6.1 10.7c0 0-1.4 2.7-3.5-0.8l-5.8-9.3c-2.2-3.5 0.8-3.5 0.8-3.5l12.3-0.7 4.3-2.7c0.4-0.3-0.2-0.9-0.1-1.3 0.3-0.4 1-0.8 1-0.8z"/><path class="d" d="m57.8 15.3l-1.5-2.5m-0.9 2.6l-1.5-2.5m8.7 2.1l-1.5-2.4m-0.9 2.4l-1.5-2.4m-5.7 3l-1.6-2.4"/></g></g></svg>