<svg version="1.2" xmlns="http://www.w3.org/2000/svg" viewBox="0 0 748 137" width="748" height="137"><defs><clipPath clipPathUnits="userSpaceOnUse" id="cp1"><path d="m-53-41h1224v1530h-1224z"/></clipPath></defs><style>tspan{white-space:pre}.a{font-size: 23px;fill: #000000;font-weight: bold;font-family: "Eurostile LT Std"}.b{fill:#696a6d}</style><g clip-path="url(#cp1)"><text style="transform:matrix(.999,0,0,1.001,239.898,136.421)" ><tspan x="0" y="0" class="a">MECH RECORD SHEET
</tspan></text><path fill-rule="evenodd" d="m50.4 14.4c31.6 0 28.6 39.8 11.4 39.8 15.4 0 29.5 42.4-14.1 42.4h-46.8v-82.2zm-24.5 20.7v9.2h18.5c7.3 0 6.7-9.2 0-9.2zm0 30.8v9.2h19.7c7.7 0 7.1-9.2 0-9.2z"/><path class="b" d="m160.4 69.3h-25.5l-13.4-22.8-13.4 22.8h-25.5l38.9-69zm-1.4 27.3h-75.1l12.1-21h50.9z"/><path  d="m219.3 36.9h-21.4v59.7h-25.8v-59.7h-21.4v-22.5h68.6zm73 0h-21.4v59.7h-25.8v-59.7h-21.4v-22.4h68.6zm61.8 37.7v21.9h-56.2v-82.1h25.8v60.2zm170.4-38.4v8h36v21.8h-36v8.7h37.4v21.8h-62.1v-82.1h62.1v21.8zm-29.8 0.7h-21.4v59.6h-25.8v-59.6h-62v7.3h36v21.8h-36v8.7h37.4v21.8h-62.1v-82.1h133.9zm152.9 36.8c-6.9 14.6-21.9 24.7-39.3 24.7-23.9 0-43.3-19-43.3-42.6 0-23.5 19.4-42.6 43.3-42.6 17 0 31.8 9.7 38.8 23.8l-21.6 10.2c-2.9-6.9-9.2-11.6-16.6-11.6-10.1 0-18.3 9-18.3 20.2 0 11.2 8.2 20.3 18.3 20.3 7.7 0 14.2-5.2 17-12.5zm83.3-59.3l-0.2 82.1h-25.8v-30.5h-27.7v30.5h-25.7l-0.2-82.1h25.9v29.1h27.7v-29.1zm5.2 6.8v-5.6h-2.2v-1.2h5.8v1.2h-2.2v5.6zm4.6 0v-6.8h2.2l1.3 4.7 1.3-4.7h2.2v6.8h-1.4v-5.3l-1.4 5.3h-1.4l-1.5-5.3v5.3z"/></g></svg>