<?xml version="1.0" encoding="utf-8"?>
<svg version="1.2" viewBox="0 0 165 210" width="165" height="210" xmlns="http://www.w3.org/2000/svg">
  <defs>
    <clipPath clipPathUnits="userSpaceOnUse" id="cp1">
      <path d="m0-737h1224v1530h-1224z"/>
    </clipPath>
    <clipPath clipPathUnits="userSpaceOnUse" id="cp2">
      <path d="m20.86-737h1182.28v1530h-1182.28z"/>
    </clipPath>
  </defs>
  <style>tspan{white-space:pre}.dmgtsa{font-size: 14px;line-height: 20px;fill: #000000;font-family: "Eurostile LT Std"}.dmgtsb{fill:none;stroke:#000;stroke-width:1.9}.dmgtsc{fill:#fff;stroke:#000;stroke-width:1.9}.dmgtsd{fill:#c7c8ca}.dmgtse{stroke:#000;stroke-linejoin:bevel;stroke-width:.5}</style>
  <g clip-path="url(#cp1)" transform="matrix(1, 0, 0, 1, -432.099976, -512.700134)">
    <text style="transform: matrix(0.999, 0, 0, 1.001, 433.907, 694.432); white-space: pre;"><tspan x="0" y="0" class="dmgtsa">Damage Transfer
</tspan></text>
    <text style="transform: matrix(0.999, 0, 0, 1.001, 463.25, 710.659); white-space: pre;"><tspan x="0" y="0" class="dmgtsa">Diagram
</tspan></text>
    <g clip-path="url(#cp2)">
      <path class="dmgtsb" d="m443.9 602.3c-0.3 0.3-0.5 0.7-0.5 1.1l0.2-2.4q0 0.7 0.3 1.3zm-0.5 1.4v-0.3c-0.1 0.6 0.2 1.2 0.6 1.6q-0.4 0-0.6 0.3l-0.8-1c0.4-0.1 0.7-0.3 0.8-0.6z"/>
      <path class="dmgtsc" d="m449.2 597.7q0.3 0.6 0.2 1.2l-0.2 2.6c-0.1 1.1-1 1.9-2.1 2.2 0 0.5-0.3 1-0.6 1.3 0.2 0.1 0.4 0.4 0.4 0.7 0 0.4-0.2 0.7-0.5 0.9q0.3 0.3 0.3 0.7c0.1 0.6-0.4 1.1-1 1.2l-2.3 0.2q-0.3 0-0.6-0.1-0.1 0.1-0.2 0.2c-0.5 0.4-1.2 0.4-1.6-0.1l-3.1-3.5c-0.2-0.2-0.3-0.5-0.2-0.8l0.4-5.2-1.8-0.1 2.8-7.4 8.7 0.7 1.7 5.3z"/>
      <path class="dmgtsc" d="m445.5 606.2c0.6 0 1.2 0.4 1.2 1.1 0.1 0.6-0.4 1.1-1 1.2l-2.4 0.2c-0.6 0-1.2-0.4-1.2-1.1-0.1-0.6 0.4-1.1 1-1.2z"/>
      <path class="dmgtsc" d="m442.7 607.3c0.5 0.4 0.4 1.1-0.1 1.5-0.5 0.4-1.2 0.4-1.6-0.1l-3.1-3.5c-0.4-0.4-0.3-1.2 0.2-1.5 0.5-0.4 1.2-0.4 1.6 0.1z"/>
      <path class="dmgtsc" d="m442.3 604.8c0 0.6-1.1 1-2.4 0.9-1.3-0.1-2.3-0.7-2.2-1.3l0.6-6.7c0-0.6 1.1-1.1 2.4-0.9 1.3 0.1 2.3 0.7 2.2 1.3z"/>
      <path class="dmgtsc" d="m445.9 604.8c0.5 0 0.9 0.4 1 0.9 0 0.5-0.3 1-0.9 1l-1.8 0.2c-0.5 0-1-0.3-1-0.9-0.1-0.5 0.3-1 0.8-1z"/>
      <path class="dmgtsc" d="m443.7 605.7c0.3 0.4 0.3 1-0.1 1.3-0.4 0.4-1 0.3-1.3-0.1l-2.4-2.9c-0.4-0.4-0.3-1 0.1-1.3 0.4-0.4 1-0.3 1.3 0.1z"/>
      <path class="dmgtsc" d="m443.4 603.7c-0.1 0.5-0.9 0.8-2 0.7-1 0-1.8-0.5-1.8-1.1l0.5-5.6c0.1-0.6 1-0.9 2-0.8 1 0.1 1.8 0.6 1.8 1.1z"/>
      <ellipse class="dmgtsc" cx="445.3" cy="603.6" rx="1.9" ry="1.9"/>
      <path class="dmgtsc" d="m449.2 601.5c-0.1 1.4-1.5 2.4-3 2.2-1.6-0.1-2.7-1.3-2.6-2.7l0.2-2.6c0.2-1.3 1.5-2.4 3-2.2 1.6 0.1 2.7 1.3 2.6 2.7z"/>
      <path class="dmgtsc" d="m439.1 591.7l8.7 0.7 1.7 5.3-11.1 1.5-2.1-0.1z"/>
      <path class="dmgtsc" d="m437.4 569.8h0.7v-0.3l-1-0.5v-0.7l1.2-0.3v-0.4h-0.7l-0.7-1.2 1.4-15.7-0.7-0.1-5.5-4.9 0.3-4 5.3-0.7-4.4-5.1 1.5-4.3 6.2 0.5-1.8-8.6 3.2-2 6.7 3.6 0.3-7.7 4.2-1.5 6.1 6.4 2.5 5.8-0.6 2.5-4.7 2.9-0.4 4.4 1.6-0.5 0.6 14.3-2.6-1-0.2 2.2-1.1 0.3-1.3 14.7-0.8 1-0.8-0.1v0.4l1.1 0.4-0.1 0.8-1.1 0.2-0.1 0.4 0.8 0.1 0.6 1.1-1.7 19.4-1.2 1-13.3-1.1-3.9-5.5 3.2-15.2z"/>
      <path class="dmgtsc" d="m523.4 617h3l1.5 7.4-0.3 8.1 1.1 0.8 8.2 18.6v2.6l-2.4 2.9 2 8.5-3 1.5 1.5 2.5 7.1 3 0.7 1.8 1.5 0.7v2.6h-0.8-30.7v-2.9l1.2-1.1 0.3-1.9 2.2-1.1v-4.7l-1.4-0.4-1.1-5.2-4.5-0.7-2.9-4.8 0.3-20.5 0.5-0.8-1.2-4.4 0.4-1.4-0.4-2.6-1.5-1.1-1.8-1.5-0.4-0.4 0.4-0.7 1.1-0.4-0.4-1.4-0.6-2.2-6.8-25.4h20.7z"/>
      <path class="dmgtsc" d="m465.5 592.4h20.7l-6.7 25.4-0.7 2.2-0.3 1.4 1.1 0.4 0.3 0.7-0.3 0.4-1.9 1.5-1.5 1.1-0.3 2.6 0.3 1.4-1.2 4.4 0.5 0.8 0.4 20.5-3 4.8-4.4 0.7-1.2 5.2-1.4 0.4v4.7l2.2 1.1 0.4 1.9 1.1 1.1v2.9h-30.7-0.7v-2.6l1.4-0.7 0.8-1.8 7-3 1.5-2.5-3-1.5 2-8.5-2.3-2.9v-2.6l8.1-18.6 1.1-0.8-0.3-8.1 1.5-7.4h3z"/>
      <path class="dmgtsc" d="m479.6 560.5l1.8 19.1v12.8h-18.5l-0.7-0.7 0.7-10.7 0.4-0.5 8.9-1.7c0 0-3.7-7.3-4.5-18.3-2.6-0.4-7.7-1.1-7.7-1.1l-1.1-1.1-1.1-23.9 0.7-1.1 17-1.1h4.1z"/>
      <path class="dmgtsc" d="m502.9 532.2h4l17 1.1 0.8 1.1-1.1 23.9-1.1 1.1c0 0-5.2 0.7-7.8 1.1-0.7 11-4.4 18.3-4.4 18.3l8.9 1.7 0.3 0.5 0.7 10.7-0.7 0.7h-18.5v-12.8l1.9-19.1z"/>
      <path class="dmgtsb" d="m539 601l0.2 2.4c0-0.4-0.2-0.8-0.5-1.1q0.4-0.6 0.3-1.3zm1 3.3l-0.8 1q-0.2-0.3-0.6-0.3c0.4-0.4 0.7-1 0.6-1.6v0.3c0.1 0.3 0.4 0.5 0.8 0.6z"/>
      <path class="dmgtsc" d="m533.1 597.7l1.7-5.3 8.7-0.7 2.8 7.4-1.8 0.1 0.5 5.2c0 0.3-0.1 0.6-0.3 0.8l-3 3.5c-0.5 0.5-1.2 0.5-1.7 0.1q-0.1-0.1-0.2-0.2-0.3 0.1-0.5 0.1l-2.4-0.2c-0.6-0.1-1.1-0.6-1-1.2q0-0.4 0.3-0.7c-0.3-0.2-0.5-0.5-0.5-0.9 0.1-0.3 0.2-0.6 0.4-0.7-0.3-0.3-0.6-0.8-0.6-1.3q0 0 0 0c-1.1-0.3-2-1.1-2.1-2.2l-0.2-2.6q-0.1-0.6 0.2-1.2z"/>
      <path class="dmgtsc" d="m539.5 606.4c0.6 0.1 1.1 0.6 1 1.2 0 0.7-0.6 1.1-1.2 1.1l-2.4-0.2c-0.6-0.1-1.1-0.6-1-1.2 0-0.7 0.6-1.1 1.2-1.1z"/>
      <path class="dmgtsc" d="m542.9 603.8c0.4-0.5 1.1-0.5 1.6-0.1 0.5 0.3 0.6 1.1 0.2 1.5l-3 3.5c-0.5 0.5-1.2 0.5-1.7 0.1-0.5-0.4-0.5-1.1-0.1-1.5z"/>
      <path class="dmgtsc" d="m539.7 598.1c-0.1-0.6 0.9-1.2 2.2-1.3 1.3-0.2 2.4 0.3 2.5 0.9l0.6 6.7c0 0.6-1 1.2-2.3 1.3-1.3 0.1-2.4-0.3-2.4-0.9z"/>
      <path class="dmgtsc" d="m538.6 605c0.5 0 0.9 0.5 0.9 1-0.1 0.6-0.5 0.9-1.1 0.9l-1.8-0.2c-0.5 0-0.9-0.5-0.9-1 0.1-0.5 0.5-0.9 1-0.9z"/>
      <path class="dmgtsc" d="m541.3 602.8c0.4-0.4 0.9-0.5 1.3-0.1 0.4 0.3 0.5 0.9 0.2 1.3l-2.4 2.9c-0.4 0.4-1 0.5-1.4 0.1-0.4-0.3-0.4-0.9-0.1-1.3z"/>
      <path class="dmgtsc" d="m538.7 598c0-0.5 0.8-1 1.8-1.1 1.1-0.1 1.9 0.2 2 0.8l0.5 5.6c0 0.6-0.8 1.1-1.8 1.1-1 0.1-1.9-0.2-2-0.7z"/>
      <ellipse class="dmgtsc" cx="537.4" cy="603.6" rx="1.9" ry="1.9"/>
      <path class="dmgtsc" d="m533.2 598.9c-0.1-1.4 1-2.6 2.6-2.7 1.5-0.2 2.9 0.9 3 2.2l0.2 2.6c0.1 1.4-1 2.6-2.6 2.7-1.5 0.2-2.9-0.8-3-2.2z"/>
      <path class="dmgtsc" d="m546.3 599.1l-2.1 0.1-11.1-1.5 1.7-5.3 8.7-0.7z"/>
      <path class="dmgtsc" d="m546.5 570.8l3.1 15.2-3.9 5.5-13.3 1.1-1.2-1-1.7-19.4 0.7-1.1 0.7-0.1v-0.4l-1.2-0.2v-0.8l1-0.4v-0.4l-0.7 0.1-0.9-1-1.3-14.7-1.1-0.3-0.2-2.2-2.6 1 0.6-14.3 1.6 0.5-0.4-4.4-4.7-2.9-0.6-2.5 2.5-5.8 6.1-6.4 4.2 1.5 0.3 7.7 6.8-3.6 3.1 2-1.8 8.6 6.2-0.5 1.5 4.3-4.3 5.1 5.2 0.7 0.4 4-5.5 4.9-0.8 0.1 1.4 15.7-0.6 1.2h-0.8l0.1 0.4 1.1 0.3 0.1 0.7-1.1 0.5v0.3h0.8z"/>
      <path class="dmgtsc" d="m502.9 532.2v28.3l-1.9 19.1v12.5l-1.1 9.9-1.5 1.4h-14.4l-1.5-1.4-1.1-9.9v-12.5l-1.8-19.1v-28.3z"/>
      <path class="dmgtsc" d="m491.2 544.7c-5.9 0-10.8-2.8-10.8-12.5h-3v-8.1l1.1-1.1 3.6-0.3c1.1-2.7 2.5-4.8 4.3-6.3l0.3-2.6 1.1-1.1h6.8l1.2 1.1 0.3 2.6c1.7 1.5 3.2 3.6 4.2 6.3l3.7 0.3 1.1 1.1v8.1h-3.1c0 9.7-4.8 12.5-10.8 12.5z"/>
      <path class="dmgtsd" d="m497.9 523.4q1 0.3 1.9 0.6c0.5 1.8 0.8 3.8 0.8 6 0 2.7-0.5 5.2-1.4 7.2 0-5.1-0.5-9.9-1.3-13.8zm-16.1 6.6c0-2.2 0.3-4.2 0.8-6q1-0.3 1.9-0.6c-0.8 3.9-1.3 8.7-1.3 13.8-0.9-2-1.4-4.5-1.4-7.2zm9.4-8.8q-2.5 0-4.9 0.3c0.7-1.9 1.5-2.4 2.4-3.4q1.2-0.6 2.5-0.6 1.3 0 2.6 0.6c0.9 1 1.7 1.5 2.3 3.4q-2.4-0.3-4.9-0.3zm-6.5 15.5c0-5.2 0.6-9.9 1.4-13.7q2.5-0.5 5.1-0.5 2.7 0 5.1 0.5c0.9 3.8 1.4 8.5 1.4 13.7q0 0.5 0 1c-1.1 1.9-2.7 3.7-4.3 4.3l-0.4-1.8h-3.2l-0.4 1.9c-1.8-0.6-3.5-2.3-4.7-4.4q0-0.5 0-1z"/>
      <path class="dmgtse" d="m474 589.4v6.5h-4.3v-6.5h-4.4l6.6-6.5 6.5 6.5z"/>
      <path class="dmgtse" d="m512.9 589.4v6.5h-4.3v-6.5h-4.4l6.6-6.5 6.5 6.5z"/>
      <path class="dmgtse" d="m499.4 564.6h6.6v4.3h-6.6v4.4l-6.5-6.5 6.5-6.5z"/>
      <path class="dmgtse" d="m482.4 560.3l6.5 6.5-6.5 6.5v-4.4h-6.5v-4.3h6.5z"/>
      <path class="dmgtse" d="m461.8 538.4l6.6 6.5-6.6 6.5v-4.4h-6.5v-4.3h6.5z"/>
      <path class="dmgtse" d="m520.8 542.7h6.5v4.3h-6.5v4.4l-6.5-6.5 6.5-6.5z"/>
    </g>
  </g>
</svg>